<?xml version="1.0" encoding="UTF-8" standalone="no"?>
<!-- Created with Inkscape (http://www.inkscape.org/) -->

<svg
   width="24"
   height="24"
   viewBox="0 0 0.24 0.24"
   version="1.1"
   id="svg5"
   xmlns="http://www.w3.org/2000/svg"
   xmlns:svg="http://www.w3.org/2000/svg">
  <defs
     id="defs2">
    <clipPath
       clipPathUnits="userSpaceOnUse"
       id="clipPath603">
      <g
         id="g609"
         style="display:none">
        <rect
           style="fill:#ffffff;stroke:#000000;stroke-width:0"
           id="rect605"
           width="0.047709692"
           height="0.071404442"
           x="0.037143119"
           y="0.037105251"
           rx="0.020000029"
           ry="0.0099999411"
           d="m 0.05714315,0.03710525 h 0.0077096 c 0.01108002,0 0.02000003,0.00446 0.02000003,0.0099999 v 0.05140456 c 0,0.00554 -0.00892,0.0099999 -0.02000003,0.0099999 h -0.0077096 c -0.01108002,0 -0.02000003,-0.00446 -0.02000003,-0.0099999 V 0.04710519 c 0,-0.00554 0.00892,-0.0099999 0.02000003,-0.0099999 z" />
        <rect
           style="fill:#ffffff;stroke:#000000;stroke-width:0"
           id="rect607"
           width="0.047709692"
           height="0.071404442"
           x="0.15673757"
           y="0.037105251"
           rx="0.020000029"
           ry="0.0099999411"
           d="m 0.1767376,0.03710525 h 0.00771 c 0.01108,0 0.02,0.00446 0.02,0.0099999 v 0.05140456 c 0,0.00554 -0.00892,0.0099999 -0.02,0.0099999 h -0.00771 c -0.01108,0 -0.02,-0.00446 -0.02,-0.0099999 V 0.04710519 c 0,-0.00554 0.00892,-0.0099999 0.02,-0.0099999 z" />
      </g>
      <path
         id="lpe_path-effect611"
         class="powerclip"
         d="M -4.98,-4.9871927 H 5.2200013 V 5.1328076 H -4.98 Z m 5.03714315,5.02429795 c -0.01108002,0 -0.02000003,0.00446 -0.02000003,0.0099999 v 0.05140456 c 0,0.00554 0.00892,0.0099999 0.02000003,0.0099999 h 0.0077096 c 0.01108002,0 0.02000003,-0.00446 0.02000003,-0.0099999 V 0.04710519 c 0,-0.00554 -0.00892,-0.0099999 -0.02000003,-0.0099999 z m 0.11959445,0 c -0.01108,0 -0.02,0.00446 -0.02,0.0099999 v 0.05140456 c 0,0.00554 0.00892,0.0099999 0.02,0.0099999 h 0.00771 c 0.01108,0 0.02,-0.00446 0.02,-0.0099999 V 0.04710519 c 0,-0.00554 -0.00892,-0.0099999 -0.02,-0.0099999 z" />
    </clipPath>
  </defs>
  <g
     id="layer1">
    <path
       style="fill:#d7dae0;fill-opacity:1;stroke:#000000;stroke-width:0"
       id="rect236"
       width="0.2000003"
       height="0.11999929"
       x="0.020000501"
       y="0.012807828"
       rx="0.020000029"
       ry="0.0099999411"
       clip-path="url(#clipPath603)"
       d="m 0.04000053,0.01280783 h 0.16000024 c 0.01108,0 0.02,0.00446 0.02,0.0099999 v 0.09999941 c 0,0.00554 -0.00892,0.01 -0.02,0.01 H 0.04000053 c -0.01108002,0 -0.02000003,-0.00446 -0.02000003,-0.01 V 0.02280777 c 0,-0.00554 0.00892,-0.0099999 0.02000003,-0.0099999 z" />
    <text
       xml:space="preserve"
       style="font-style:normal;font-weight:normal;font-size:0.1px;line-height:1.25;font-family:sans-serif;fill:#d7dae0;fill-opacity:1;stroke:none;stroke-width:0.01"
       x="0.027537137"
       y="0.21515623"
       id="text539"><tspan
         id="tspan537"
         style="font-size:0.1px;fill:#d7dae0;fill-opacity:1;stroke-width:0.01"
         x="0.027537137"
         y="0.21515623">CAI</tspan></text>
  </g>
</svg>
